<?xml version="1.0" encoding="UTF-8" standalone="no"?>
<!-- Created with Inkscape (http://www.inkscape.org/) -->

<svg
   width="64"
   height="64"
   viewBox="0 0 64 64"
   version="1.1"
   id="svg8"
   xmlns="http://www.w3.org/2000/svg"
   xmlns:svg="http://www.w3.org/2000/svg"
   xmlns:rdf="http://www.w3.org/1999/02/22-rdf-syntax-ns#"
   xmlns:cc="http://creativecommons.org/ns#"
   xmlns:dc="http://purl.org/dc/elements/1.1/">
  <defs
     id="defs2" />
  <metadata
     id="metadata5">
    <rdf:RDF>
      <cc:Work
         rdf:about="">
        <dc:format>image/svg+xml</dc:format>
        <dc:type
           rdf:resource="http://purl.org/dc/dcmitype/StillImage" />
      </cc:Work>
    </rdf:RDF>
  </metadata>
  <g
     id="layer2"
     style="display:inline"
     transform="translate(-1,-1)">
    <path
       style="display:inline;fill:#404040;fill-opacity:1;stroke:none;stroke-width:1px;stroke-linecap:butt;stroke-linejoin:miter;stroke-opacity:1"
       d="m 22,42 c 2,2 2,7 0,7 H 12 C 11,49 7.0000001,59.010578 8,59.010155 L 33,59 V 42 c 0,0 -13,-2 -11,0 z m 22,0 c -2,2 -2,7 0,7 h 10 c 1,0 5,10.010578 4,10.010155 L 33,59 V 42 c 0,0 13,-2 11,0 z"
       id="path8218"
       transform="translate(0,4)" />
    <path
       style="display:inline;fill:#262626;fill-opacity:1;stroke:none;stroke-width:1px;stroke-linecap:butt;stroke-linejoin:miter;stroke-opacity:1"
       d="M 24,31 C 11,31 1,29 1,29 1,29 21,42 21,42.99684 21,45 21,46 22,46 h 4 c 0,0 -2,11 -8,13 H 33 V 31 Z m 18,0 C 55,31 65,29 65,29 65,29 45,42 45,42.99684 45,45 45,46 44,46 h -4 c 0,0 2,11 8,13 H 33 V 31 Z"
       id="path2875"
       transform="translate(0,4)" />
    <path
       style="display:inline;fill:#5a6d80;fill-opacity:1;stroke:none;stroke-width:1px;stroke-linecap:butt;stroke-linejoin:miter;stroke-opacity:1"
       d="m 1,29 c 0,0 10,-2 23,-2 h 9 v 4 H 24 C 11,31 1,29 1,29 Z m 64,0 c 0,0 -10,-2 -23,-2 h -9 v 4 h 9 c 13,0 23,-2 23,-2 z"
       id="path4887"
       transform="translate(0,4)" />
  </g>
  <g
     id="layer1"
     transform="translate(-1,-1)"
     style="display:inline">
    <text
       xml:space="preserve"
       style="font-size:16px;line-height:1.25;font-family:Lato;-inkscape-font-specification:Lato;letter-spacing:0px;word-spacing:0px;display:none;fill:#bf8686;fill-opacity:1;stroke-width:1"
       x="33"
       y="17"
       id="text12981"><tspan
         id="tspan12979"
         x="0"
         y="0"
         style="font-style:normal;font-variant:normal;font-weight:900;font-stretch:normal;font-size:16px;font-family:'Fira Sans';-inkscape-font-specification:'Fira Sans Heavy';fill:#bf8686;fill-opacity:1;stroke-width:1">OBJ</tspan></text>
    <path
       style="display:none;fill:#bf8686;fill-opacity:1;stroke:none;stroke-width:1.00157;stroke-linecap:butt;stroke-linejoin:miter;stroke-miterlimit:4;stroke-dasharray:none;stroke-opacity:1"
       d="M 26,57 H 14 V 26 H 5 L 20,1 35,26 h -9 z"
       id="path10153" />
    <path
       style="display:inline;fill:#bf8686;fill-opacity:1;stroke:none;stroke-width:1.00157;stroke-linecap:butt;stroke-linejoin:miter;stroke-miterlimit:4;stroke-dasharray:none;stroke-opacity:1"
       d="m 14,1 h 12 v 31 h 9 L 20,57 5,32 h 9 z"
       id="path4081" />
    <text
       xml:space="preserve"
       style="font-size:32px;line-height:1.25;font-family:Lato;-inkscape-font-specification:Lato;letter-spacing:0px;word-spacing:0px;display:inline;fill:#bf8686;fill-opacity:1;stroke-width:1"
       x="34.40625"
       y="27.546875"
       id="text867"><tspan
         id="tspan865"
         x="34.40625"
         y="27.546875"
         style="font-style:normal;font-variant:normal;font-weight:900;font-stretch:normal;font-size:32px;font-family:'Fira Sans';-inkscape-font-specification:'Fira Sans Heavy';fill:#bf8686;fill-opacity:1;stroke-width:1">O</tspan></text>
  </g>
  <g
     id="g3730"
     transform="translate(-1,-1)"
     style="display:none">
    <text
       xml:space="preserve"
       style="font-size:16px;line-height:1.25;font-family:Lato;-inkscape-font-specification:Lato;letter-spacing:0px;word-spacing:0px;display:none;fill:#86bfa3;fill-opacity:1;stroke-width:1"
       x="28.53125"
       y="16.832031"
       id="text3724"><tspan
         id="tspan3722"
         x="0"
         y="0"
         style="font-style:normal;font-variant:normal;font-weight:900;font-stretch:normal;font-size:16px;font-family:'Fira Sans';-inkscape-font-specification:'Fira Sans Heavy';fill:#86bfa3;fill-opacity:1;stroke-width:1">FBX</tspan></text>
    <path
       style="display:none;fill:#86bfa3;fill-opacity:1;stroke:none;stroke-width:1.00157;stroke-linecap:butt;stroke-linejoin:miter;stroke-miterlimit:4;stroke-dasharray:none;stroke-opacity:1"
       d="M 26,57 H 14 V 26 H 5 L 20,1 35,26 h -9 z"
       id="path3726" />
    <path
       style="display:inline;fill:#86bfa3;fill-opacity:1;stroke:none;stroke-width:1.00157;stroke-linecap:butt;stroke-linejoin:miter;stroke-miterlimit:4;stroke-dasharray:none;stroke-opacity:1"
       d="m 14,1 h 12 v 31 h 9 L 20,57 5,32 h 9 z"
       id="path3728" />
    <text
       xml:space="preserve"
       style="font-size:32px;line-height:1.25;font-family:Lato;-inkscape-font-specification:Lato;letter-spacing:0px;word-spacing:0px;display:inline;fill:#86bfa3;fill-opacity:1;stroke-width:1"
       x="36.945312"
       y="27.664062"
       id="text6699"><tspan
         id="tspan6697"
         x="36.945312"
         y="27.664062"
         style="font-style:normal;font-variant:normal;font-weight:900;font-stretch:normal;font-size:32px;font-family:'Fira Sans';-inkscape-font-specification:'Fira Sans Heavy';fill:#86bfa3;fill-opacity:1;stroke-width:1">F</tspan></text>
  </g>
</svg>
